# xmcd
#
# Track frame offsets: 
#        150
#        13353
#        35649
#        59802
#        73237
#        86477
#
# Disc length: 1387 seconds
#
# Revision: 0
# Processed by: cddbd v1.5.2PL0 Copyright (c) Steve Scherf et al.
# Submitted via: ExactAudioCopyFreeDBPlugin 1.0
#
DISCID=59056906
DTITLE=Blekinge Bluesorkester - One Of These Mornings
DYEAR=2016
DGENRE=Blues
TTITLE0=It's You That I Want
TTITLE1=One Of These Mornings
TTITLE2=Last Night
TTITLE3=Sunday Morning Stroll
TTITLE4=Don't Want You Back
TTITLE5=Checkin Up On My Baby
EXTD=
EXTT0=
EXTT1=
EXTT2=
EXTT3=
EXTT4=
EXTT5=
PLAYORDER=
